<svg xmlns="http://www.w3.org/2000/svg" width="13.783" height="13.784"><g data-name="グループ 4" fill="#007e3c"><path data-name="パス 1" d="M12.538 12.731V7.514h-2.1v4.164H2.111V3.351h4.163V1.245H1.058A1.053 1.053 0 00.005 2.298v10.433a1.053 1.053 0 001.053 1.053H11.49a1.053 1.053 0 001.048-1.053z"/><path data-name="パス 2" d="M7.304.99a.916.916 0 00.905.842l2.325.02-5.4 5.4a.99.99 0 101.4 1.4l5.4-5.4.02 2.324a.917.917 0 00.843.906.916.916 0 00.989-.921l-.043-4.9a.62.62 0 00-.615-.615l-4.9-.043a.917.917 0 00-.924.987z"/></g></svg>